<svg width="50" height="50" viewBox="0 0 50 50" fill="none" xmlns="http://www.w3.org/2000/svg">
<path d="M4.6875 32.8125L45.3125 32.8125C46.1754 32.8125 46.875 32.1129 46.875 31.25V9.375C46.875 8.51205 46.1754 7.8125 45.3125 7.8125L4.6875 7.8125C3.82455 7.8125 3.125 8.51205 3.125 9.375V31.25C3.125 32.1129 3.82455 32.8125 4.6875 32.8125Z" stroke="#375A76" stroke-width="3.125" stroke-linejoin="round"/>
<path d="M6.25 37.5H43.75M9.375 42.1875H40.625" stroke="#375A76" stroke-width="3.125" stroke-linecap="round" stroke-linejoin="round"/>
<path d="M25 28.125C29.3147 28.125 32.8125 24.6272 32.8125 20.3125C32.8125 15.9978 29.3147 12.5 25 12.5C20.6853 12.5 17.1875 15.9978 17.1875 20.3125C17.1875 24.6272 20.6853 28.125 25 28.125Z" stroke="#375A76" stroke-width="3.125" stroke-linecap="round" stroke-linejoin="round"/>
<path d="M46.875 15.625C44.803 15.625 42.8159 14.8019 41.3507 13.3368C39.8856 11.8716 39.0625 9.8845 39.0625 7.8125M3.125 15.625C4.15095 15.625 5.16686 15.4229 6.11471 15.0303C7.06257 14.6377 7.92381 14.0622 8.64927 13.3368C9.37473 12.6113 9.95019 11.7501 10.3428 10.8022C10.7354 9.85436 10.9375 8.83845 10.9375 7.8125M46.875 25C44.803 25 42.8159 25.8231 41.3507 27.2882C39.8856 28.7534 39.0625 30.7405 39.0625 32.8125M3.125 25C4.15095 25 5.16686 25.2021 6.11471 25.5947C7.06257 25.9873 7.92381 26.5628 8.64927 27.2882C9.37473 28.0137 9.95019 28.8749 10.3428 29.8228C10.7354 30.7706 10.9375 31.7865 10.9375 32.8125" stroke="#375A76" stroke-width="3.125" stroke-linecap="round" stroke-linejoin="round"/>
</svg>
