<svg width="50" height="50" viewBox="0 0 50 50" fill="none" xmlns="http://www.w3.org/2000/svg">
<path d="M49.1776 12.3242C49.0629 12.0883 48.8935 11.8832 48.6835 11.726C48.4735 11.5689 48.229 11.4642 47.9703 11.4207C47.7116 11.3772 47.4463 11.3962 47.1965 11.4761C46.9466 11.556 46.7195 11.6944 46.534 11.8799L41.5389 16.875C41.3351 17.076 41.0604 17.1887 40.7742 17.1887C40.488 17.1887 40.2133 17.076 40.0096 16.875L37.8143 14.6797C37.6135 14.4757 37.5009 14.2008 37.5009 13.9146C37.5009 13.6283 37.6135 13.3535 37.8143 13.1494L42.783 8.1797C42.9731 7.9896 43.1138 7.75581 43.1926 7.49878C43.2715 7.24175 43.2862 6.96932 43.2354 6.7053C43.1846 6.44129 43.0699 6.19374 42.9014 5.9843C42.7328 5.77487 42.5154 5.60993 42.2684 5.50392C38.3904 3.84376 33.5692 4.77638 30.5496 7.77833C27.9315 10.377 27.1483 14.419 28.4012 18.8818C28.4552 19.0734 28.455 19.2762 28.4005 19.4676C28.346 19.659 28.2394 19.8315 28.0926 19.9658L11.2078 35.6543C10.6485 36.1575 10.1974 36.7694 9.88212 37.4526C9.56685 38.1358 9.39397 38.876 9.37402 39.6281C9.35407 40.3803 9.48746 41.1287 9.76607 41.8276C10.0447 42.5265 10.4627 43.1614 10.9946 43.6936C11.5265 44.2258 12.1612 44.6441 12.86 44.9231C13.5588 45.202 14.3071 45.3358 15.0592 45.3162C15.8114 45.2966 16.5517 45.1241 17.2351 44.8092C17.9184 44.4943 18.5305 44.0435 19.034 43.4844L34.8631 26.5703C34.9956 26.4268 35.1648 26.3222 35.3523 26.2676C35.5399 26.2131 35.7388 26.2107 35.9276 26.2608C40.3221 27.4326 44.326 26.6514 46.9071 24.1123C48.3914 22.6475 49.4276 20.5801 49.826 18.2813C50.2 16.1133 49.9637 13.9414 49.1776 12.3242Z" fill="#375A76"/>
<path d="M42.7079 36.9541C41.3466 35.8223 38.4384 33.2041 35.4745 30.4873L29.0224 37.3828C31.7802 40.3125 34.2763 43.0322 35.37 44.3047L35.3769 44.3125C35.6396 44.6132 35.961 44.857 36.3214 45.029C36.6818 45.201 37.0736 45.2974 37.4726 45.3125H37.58C38.3472 45.3102 39.0832 45.0081 39.6308 44.4707L39.6376 44.4639L42.9023 41.2051C43.1859 40.9221 43.4072 40.5831 43.5522 40.2096C43.6972 39.8362 43.7626 39.4366 43.7442 39.0364C43.7258 38.6362 43.624 38.2443 43.4454 37.8857C43.2668 37.5272 43.0153 37.2099 42.707 36.9541H42.7079ZM11.5761 20.9522C11.5777 20.5815 11.4763 20.2177 11.2831 19.9014C11.2561 19.8586 11.2416 19.8091 11.2414 19.7584C11.2412 19.7078 11.2553 19.6582 11.282 19.6152C11.3087 19.5722 11.3469 19.5375 11.3924 19.5153C11.4378 19.493 11.4886 19.484 11.539 19.4893H11.5448C11.6269 19.4981 12.0654 19.5615 12.6874 19.9395C13.1493 20.2197 14.4677 21.1191 16.7626 23.4102C16.7382 24.1905 16.9876 24.9547 17.4677 25.5703L23.9355 19.5596C23.3626 19.0172 22.6141 18.6984 21.8261 18.6611C21.8187 18.6531 21.8119 18.6446 21.8056 18.6357L21.7421 18.5684L19.3456 15.2637C19.0792 14.9019 18.9045 14.4809 18.8365 14.0369C18.7684 13.5928 18.8091 13.1388 18.955 12.7139C19.1748 12.081 19.5746 11.5261 20.1054 11.1172C20.6611 10.6865 21.915 10.168 22.9804 10.0801C23.4767 10.039 23.9763 10.07 24.4638 10.1719C24.6973 10.2282 24.9275 10.2977 25.1532 10.3799C25.2217 10.4054 25.2918 10.426 25.3632 10.4414C25.6732 10.5101 25.9967 10.4827 26.2908 10.3629C26.5848 10.2431 26.8353 10.0365 27.0091 9.77078C27.1828 9.50501 27.2714 9.19264 27.2631 8.87525C27.2549 8.55786 27.1501 8.25051 26.9628 7.99414C26.9374 7.95996 26.8339 7.81934 26.6806 7.62989C26.3945 7.26908 26.0811 6.93084 25.7431 6.61817C24.9472 5.89942 22.8847 4.6875 20.1767 4.6875C18.627 4.68637 17.0916 4.98481 15.6552 5.56641C11.9081 7.0752 9.45696 9.13868 8.33 10.2334L8.32121 10.2422C7.56292 10.9909 6.86082 11.7945 6.22063 12.6465C5.97861 12.9878 5.82128 13.3818 5.76164 13.7959C5.73378 13.9721 5.64114 14.1315 5.50187 14.243C5.3626 14.3544 5.18673 14.4099 5.00871 14.3984H4.90227C4.3699 14.3949 3.85773 14.602 3.47746 14.9746L0.601488 17.7783L0.570238 17.8096C0.208468 18.1854 0.00443056 18.6856 7.13102e-05 19.2073C-0.00428794 19.7289 0.191362 20.2324 0.546801 20.6143C0.565355 20.6338 0.582933 20.6523 0.602465 20.6709L5.24114 25.1953C5.62333 25.5698 6.13673 25.7801 6.6718 25.7813C7.20417 25.7848 7.71634 25.5777 8.09661 25.2051L10.9736 22.3936C11.1654 22.2059 11.3177 21.9816 11.4212 21.734C11.5247 21.4864 11.5774 21.2205 11.5761 20.9522Z" fill="#375A76"/>
</svg>
