<svg width="30" height="30" viewBox="0 0 30 30" fill="none" xmlns="http://www.w3.org/2000/svg">
<path fill-rule="evenodd" clip-rule="evenodd" d="M29.9378 15.0211C29.9031 6.72279 23.1864 0.0225706 14.9374 0.057535C6.68851 0.0924993 0.0281815 6.84942 0.0629377 15.1478C0.0943503 22.6478 5.58189 28.8414 12.7286 29.9395L12.6846 19.4394L8.89089 19.4555L8.87269 15.1104L12.6664 15.0943L12.6525 11.7837C12.6368 8.01827 14.8587 5.92719 18.2703 5.91273C19.9047 5.9058 21.6158 6.19238 21.6158 6.19238L21.6312 9.89075L19.7467 9.89874C17.8922 9.9066 17.3169 11.0669 17.3219 12.257L17.3337 15.0746L21.4762 15.057L20.8328 19.4049L17.3526 19.4196L17.3965 29.921C24.5338 28.7631 29.9692 22.5232 29.9378 15.0211Z" fill="#146FBA"/>
</svg>
