<svg xmlns="http://www.w3.org/2000/svg" width="40" height="40" viewBox="0 0 512 512" fill="#375A76">
    <path d="M440.2 233.47a24.54 24.54 0 00-2.3-5.46 24.65 24.65 0 00-4.28-4.88 24.78 24.78 0 00-5.47-3.48l-2.55-.92-27.28-9.91a24.86 24.86 0 00-11.18-2.07 24.57 24.57 0 00-13.73 4.1l-19.5 11.25a24.73 24.73 0 00-12.39 21.46v22.5c0 9.18 5.27 17.57 13.73 21.46l19.5 11.25a24.57 24.57 0 0013.73 4.1 24.86 24.86 0 0011.18-2.07l27.28-9.91 2.55-.92a24.78 24.78 0 005.47-3.48 24.65 24.65 0 004.28-4.88 24.54 24.54 0 002.3-5.46l.92-2.55 9.91-27.28a24.86 24.86 0 002.07-11.18 24.57 24.57 0 00-4.1-13.73l-11.25-19.5a24.73 24.73 0 00-21.46-12.39h-22.5c-9.18 0-17.57 5.27-21.46 13.73l-11.25 19.5a24.57 24.57 0 00-4.1 13.73 24.86 24.86 0 002.07 11.18l9.91 27.28.92 2.55a24.54 24.54 0 002.3 5.46 24.65 24.65 0 004.28 4.88 24.78 24.78 0 005.47 3.48l2.55.92 27.28 9.91a24.86 24.86 0 0011.18 2.07 24.57 24.57 0 0013.73-4.1l19.5-11.25a24.73 24.73 0 0012.39-21.46v-22.5c0-9.18-5.27-17.57-13.73-21.46l-19.5-11.25a24.57 24.57 0 00-13.73-4.1 24.86 24.86 0 00-11.18 2.07l-27.28 9.91-2.55.92a24.78 24.78 0 00-5.47 3.48 24.65 24.65 0 00-4.28 4.88 24.54 24.54 0 00-2.3 5.46l-.92 2.55-9.91 27.28a24.86 24.86 0 00-2.07 11.18 24.57 24.57 0 004.1 13.73l11.25 19.5a24.73 24.73 0 0021.46 12.39h22.5c9.18 0 17.57-5.27 21.46-13.73l11.25-19.5a24.57 24.57 0 004.1-13.73 24.86 24.86 0 00-2.07-11.18l-9.91-27.28zM256 336a80 80 0 1180-80 80.09 80.09 0 01-80 80z"/>
</svg>