<svg width="30" height="24" viewBox="0 0 30 24" fill="none" xmlns="http://www.w3.org/2000/svg">
<path d="M30 2.8379C28.8747 3.32687 27.684 3.64902 26.4656 3.79415C27.746 3.04439 28.709 1.85326 29.1737 0.444151C27.9632 1.15202 26.641 1.6487 25.2638 1.9129C24.6838 1.30511 23.9863 0.821591 23.2137 0.491742C22.4411 0.161892 21.6095 -0.00740145 20.7694 -0.00584879C17.3681 -0.00584879 14.6156 2.70665 14.6156 6.0504C14.6132 6.5155 14.6665 6.97922 14.7744 7.43165C12.3354 7.31731 9.9472 6.69514 7.76249 5.60494C5.57777 4.51473 3.64468 2.9805 2.08687 1.1004C1.54036 2.02173 1.25133 3.07293 1.25 4.14415C1.25 6.24415 2.34562 8.1004 4 9.1879C3.01983 9.16464 2.05974 8.90521 1.20125 8.43165V8.50665C1.20125 11.4442 3.32625 13.8879 6.13875 14.4442C5.60986 14.5851 5.06486 14.6566 4.5175 14.6567C4.12911 14.6573 3.74161 14.6196 3.36062 14.5442C4.1425 16.9504 6.41813 18.7004 9.11375 18.7504C6.92336 20.4385 4.23414 21.3509 1.46875 21.3442C0.977886 21.3434 0.487478 21.3142 0 21.2567C2.81324 23.053 6.0834 24.0032 9.42125 23.9942C20.7563 23.9942 26.9487 14.7629 26.9487 6.75665C26.9487 6.49415 26.9419 6.23165 26.9294 5.9754C28.1313 5.12044 29.1711 4.05797 30 2.8379Z" fill="#146FBA"/>
</svg>
