<svg width="30" height="20" viewBox="0 0 30 20" fill="none" xmlns="http://www.w3.org/2000/svg">
<path d="M28.5 3.52941H1.5C1.10218 3.52941 0.720644 3.34349 0.43934 3.01254C0.158035 2.6816 0 2.23274 0 1.76471C0 1.29668 0.158035 0.847817 0.43934 0.51687C0.720644 0.185924 1.10218 0 1.5 0H28.5C28.8978 0 29.2794 0.185924 29.5607 0.51687C29.842 0.847817 30 1.29668 30 1.76471C30 2.23274 29.842 2.6816 29.5607 3.01254C29.2794 3.34349 28.8978 3.52941 28.5 3.52941ZM23.5 11.7647H6.5C6.10218 11.7647 5.72064 11.5788 5.43934 11.2478C5.15804 10.9169 5 10.468 5 10C5 9.53197 5.15804 9.08311 5.43934 8.75216C5.72064 8.42122 6.10218 8.23529 6.5 8.23529H23.5C23.8978 8.23529 24.2794 8.42122 24.5607 8.75216C24.842 9.08311 25 9.53197 25 10C25 10.468 24.842 10.9169 24.5607 11.2478C24.2794 11.5788 23.8978 11.7647 23.5 11.7647ZM17.5 20H12.5C12.1022 20 11.7206 19.8141 11.4393 19.4831C11.158 19.1522 11 18.7033 11 18.2353C11 17.7673 11.158 17.3184 11.4393 16.9875C11.7206 16.6565 12.1022 16.4706 12.5 16.4706H17.5C17.8978 16.4706 18.2794 16.6565 18.5607 16.9875C18.842 17.3184 19 17.7673 19 18.2353C19 18.7033 18.842 19.1522 18.5607 19.4831C18.2794 19.8141 17.8978 20 17.5 20Z" fill="#375A76"/>
</svg>
