<svg width="30" height="30" viewBox="0 0 30 30" fill="none" xmlns="http://www.w3.org/2000/svg">
<path d="M21.2498 2.49392C22.906 2.49886 24.4929 3.15898 25.664 4.33009C26.8352 5.50121 27.4953 7.08816 27.5002 8.74436V21.2439C27.4953 22.9001 26.8352 24.4871 25.664 25.6582C24.4929 26.8293 22.906 27.4894 21.2498 27.4944H8.75022C7.09402 27.4894 5.50707 26.8293 4.33595 25.6582C3.16484 24.4871 2.50472 22.9001 2.49978 21.2439V8.74436C2.50472 7.08816 3.16484 5.50121 4.33595 4.33009C5.50707 3.15898 7.09402 2.49886 8.75022 2.49392H21.2498ZM21.2498 -0.00585938H8.75022C3.9375 -0.00585937 0 3.93164 0 8.74436V21.2439C0 26.0566 3.9375 29.9941 8.75022 29.9941H21.2498C26.0625 29.9941 30 26.0566 30 21.2439V8.74436C30 3.93164 26.0625 -0.00585938 21.2498 -0.00585938Z" fill="#146FBA"/>
<path d="M23.1248 8.74439C22.7539 8.74439 22.3914 8.63442 22.0831 8.42839C21.7747 8.22236 21.5344 7.92953 21.3925 7.58692C21.2506 7.24431 21.2135 6.86731 21.2858 6.50359C21.3582 6.13988 21.5367 5.80578 21.799 5.54356C22.0612 5.28134 22.3953 5.10276 22.759 5.03041C23.1227 4.95807 23.4997 4.9952 23.8423 5.13711C24.1849 5.27903 24.4778 5.51935 24.6838 5.82769C24.8898 6.13603 24.9998 6.49855 24.9998 6.86939C25.0003 7.11576 24.9522 7.35982 24.8581 7.58754C24.7641 7.81527 24.626 8.02218 24.4518 8.19639C24.2776 8.37061 24.0707 8.5087 23.8429 8.60274C23.6152 8.69678 23.3712 8.74492 23.1248 8.74439ZM15 9.99394C15.989 9.99394 16.9557 10.2872 17.778 10.8366C18.6003 11.3861 19.2412 12.167 19.6196 13.0807C19.9981 13.9943 20.0971 14.9997 19.9041 15.9697C19.7112 16.9396 19.235 17.8306 18.5357 18.5299C17.8364 19.2291 16.9454 19.7054 15.9755 19.8983C15.0055 20.0912 14.0002 19.9922 13.0865 19.6138C12.1728 19.2353 11.3919 18.5944 10.8425 17.7721C10.293 16.9499 9.99978 15.9831 9.99978 14.9942C10.0012 13.6685 10.5285 12.3975 11.4659 11.46C12.4033 10.5226 13.6743 9.99536 15 9.99394ZM15 7.49416C13.5166 7.49416 12.0666 7.93403 10.8332 8.75814C9.59986 9.58225 8.63856 10.7536 8.07091 12.124C7.50325 13.4945 7.35472 15.0025 7.64411 16.4573C7.9335 17.9122 8.64781 19.2486 9.6967 20.2975C10.7456 21.3464 12.082 22.0607 13.5368 22.3501C14.9917 22.6394 16.4997 22.4909 17.8701 21.9233C19.2406 21.3556 20.4119 20.3943 21.236 19.1609C22.0601 17.9276 22.5 16.4775 22.5 14.9942C22.5 13.005 21.7098 11.0974 20.3033 9.69086C18.8968 8.28434 16.9891 7.49416 15 7.49416Z" fill="#146FBA"/>
</svg>
