<svg width="30" height="30" viewBox="0 0 30 30" fill="none" xmlns="http://www.w3.org/2000/svg">
<path fill-rule="evenodd" clip-rule="evenodd" d="M25.54 4.35373C24.1532 2.97792 22.508 1.88999 20.699 1.15257C18.8901 0.415154 16.9531 0.0428141 14.9997 0.0569857C6.80169 0.0915274 0.15601 6.75996 0.187072 14.9233C0.194398 17.5227 0.890351 20.0738 2.20409 22.3168L0.125872 29.9942L8.00249 27.9025C10.1902 29.0758 12.6361 29.6843 15.1185 29.673L15.1245 29.673C23.3219 29.6384 29.9669 22.9694 29.9365 14.8066C29.9333 12.8598 29.5429 10.9331 28.7881 9.1386C28.0333 7.34408 26.9292 5.71757 25.54 4.35373ZM15.114 27.1744L15.1086 27.1744C12.8957 27.1844 10.7205 26.6013 8.80919 25.4858L8.35662 25.221L3.68261 26.4623L4.91245 21.9166L4.61641 21.4511C3.37078 19.4972 2.70562 17.2298 2.69836 14.9127C2.66978 8.12906 8.19524 2.58632 15.0149 2.55758C18.2864 2.53796 21.4317 3.81858 23.759 6.11778C26.0863 8.41698 27.4051 11.5465 27.4252 14.8179C27.4511 21.6023 21.9283 27.1457 15.114 27.1744ZM21.8562 17.9308C21.484 17.747 19.6511 16.8599 19.3118 16.7379C18.9725 16.616 18.7222 16.555 18.4764 16.9268C18.2305 17.2986 17.5212 18.1312 17.3055 18.3821C17.0899 18.6331 16.8733 18.6614 16.501 18.4775C16.1288 18.2937 14.9289 17.9087 13.5039 16.6544C12.3948 15.6781 11.6442 14.4703 11.4259 14.1011C11.2077 13.7319 11.4002 13.5304 11.5855 13.3456C11.7521 13.1788 11.9551 12.9119 12.1402 12.695C12.3253 12.4782 12.3867 12.3232 12.509 12.076C12.6313 11.8288 12.5691 11.613 12.4756 11.4286C12.3822 11.2443 11.631 9.42633 11.3184 8.68678C11.0133 7.96654 10.7076 8.06586 10.4795 8.05548C10.2628 8.04573 10.0127 8.04411 9.76665 8.04515C9.57856 8.05084 9.39367 8.09524 9.22351 8.17558C9.05335 8.25592 8.90159 8.37048 8.77768 8.5121C8.43849 8.8843 7.48203 9.78456 7.4897 11.6037C7.49736 13.4228 8.83844 15.1776 9.02353 15.4236C9.20861 15.6695 11.661 19.3955 15.396 20.9822C16.0895 21.2758 16.798 21.5328 17.5184 21.7521C18.4099 22.0298 19.2199 21.987 19.8596 21.889C20.5734 21.7799 22.0564 20.9848 22.3615 20.1193C22.6666 19.2538 22.6642 18.5136 22.5708 18.3599C22.4775 18.2063 22.229 18.114 21.8562 17.9308Z" fill="#146FBA"/>
</svg>
